<?xml version="1.0" encoding="UTF-8"?>
<!DOCTYPE svg PUBLIC "-//W3C//DTD SVG 1.1//EN" "http://www.w3.org/Graphics/SVG/1.1/DTD/svg11.dtd">
<svg xmlns="http://www.w3.org/2000/svg" version="1.1" width="819px" height="811px" style="shape-rendering:geometricPrecision; text-rendering:geometricPrecision; image-rendering:optimizeQuality; fill-rule:evenodd; clip-rule:evenodd" xmlns:xlink="http://www.w3.org/1999/xlink">
<g><path style="opacity:0.99" fill="#000000" d="M 291.5,-0.5 C 293.5,-0.5 295.5,-0.5 297.5,-0.5C 323.937,2.73578 344.77,15.4024 360,37.5C 376.612,63.1028 384.445,91.2694 383.5,122C 383.823,160.389 370.49,193.056 343.5,220C 311.789,244.316 279.789,244.649 247.5,221C 225.816,200.804 212.649,175.971 208,146.5C 201.058,105.536 209.058,67.8695 232,33.5C 247.127,13.6932 266.96,2.35986 291.5,-0.5 Z"/></g>
<g><path style="opacity:0.99" fill="#000000" d="M 523.5,-0.5 C 526.167,-0.5 528.833,-0.5 531.5,-0.5C 557.636,2.82829 578.136,15.495 593,37.5C 609.623,63.8171 617.457,92.6504 616.5,124C 616.405,161.643 603.072,193.643 576.5,220C 544.776,244.277 512.776,244.61 480.5,221C 458.816,200.804 445.649,175.971 441,146.5C 434.099,105.541 442.099,67.8748 465,33.5C 479.879,13.9845 499.379,2.65115 523.5,-0.5 Z"/></g>
<g><path style="opacity:0.991" fill="#000000" d="M -0.5,288.5 C -0.5,279.5 -0.5,270.5 -0.5,261.5C 0.580883,238.51 6.08088,216.51 16,195.5C 27.2467,172.919 44.7467,157.419 68.5,149C 103.263,140.803 131.763,150.636 154,178.5C 177.106,211.596 185.772,248.263 180,288.5C 176.058,318.884 163.224,344.718 141.5,366C 106.948,390.952 72.615,390.618 38.5,365C 17.66,343.487 4.66005,317.987 -0.5,288.5 Z"/></g>
<g><path style="opacity:0.991" fill="#000000" d="M 818.5,248.5 C 818.5,259.5 818.5,270.5 818.5,281.5C 815.632,308.908 805.799,333.575 789,355.5C 761.497,386.067 729.33,392.234 692.5,374C 663.993,353.095 647.493,324.929 643,289.5C 635.758,244.785 646.425,205.118 675,170.5C 698.842,146.597 726.675,140.431 758.5,152C 782.773,164.608 799.606,183.774 809,209.5C 813.615,222.289 816.781,235.289 818.5,248.5 Z"/></g>
<g><path style="opacity:0.992" fill="#000000" d="M 381.5,810.5 C 377.167,810.5 372.833,810.5 368.5,810.5C 279.792,795.907 213.292,749.574 169,671.5C 130.096,597.015 126.096,520.682 157,442.5C 190.19,368.982 245.19,319.649 322,294.5C 377.525,276.906 433.692,274.406 490.5,287C 550.938,304.471 599.438,338.638 636,389.5C 651.7,414.598 661.033,441.932 664,471.5C 673.018,540.14 651.851,597.306 600.5,643C 550.978,682.703 495.978,692.703 435.5,673C 422.78,668.563 411.613,661.73 402,652.5C 394.903,638.796 398.07,628.296 411.5,621C 425.038,617.465 438.705,614.465 452.5,612C 497.056,597.726 517.889,567.226 515,520.5C 505.549,477.715 479.382,451.549 436.5,442C 373.244,433.713 325.41,456.88 293,511.5C 277.785,543.538 272.452,577.204 277,612.5C 281.583,647.655 294.917,678.988 317,706.5C 337.807,731.649 361.974,752.816 389.5,770C 402.447,781.589 402.78,793.589 390.5,806C 387.563,807.801 384.563,809.301 381.5,810.5 Z"/></g>
</svg>
